<svg height="4078" width="720" xmlns="http://www.w3.org/2000/svg">
<rect height="4078" fill="#555" width="720"></rect>
<text fill="#7f7" font-family="Courier New" font-size="12" xml:space="preserve">
<tspan x="10" y="26">└─┬ brunch@2.10.9 </tspan>
<tspan x="10" y="42">  ├─┬ anymatch@1.3.0 </tspan>
<tspan x="10" y="58">  │ ├── arrify@1.0.1 </tspan>
<tspan x="10" y="74">  │ └─┬ micromatch@2.3.11 </tspan>
<tspan x="10" y="90">  │   ├─┬ arr-diff@2.0.0 </tspan>
<tspan x="10" y="106">  │   │ └── arr-flatten@1.0.1 </tspan>
<tspan x="10" y="122">  │   ├── array-unique@0.2.1 </tspan>
<tspan x="10" y="138">  │   ├─┬ braces@1.8.5 </tspan>
<tspan x="10" y="154">  │   │ ├─┬ expand-range@1.8.2 </tspan>
<tspan x="10" y="170">  │   │ │ └─┬ fill-range@2.2.3 </tspan>
<tspan x="10" y="186">  │   │ │   ├── is-number@2.1.0 </tspan>
<tspan x="10" y="202">  │   │ │   ├── isobject@2.1.0 </tspan>
<tspan x="10" y="218">  │   │ │   ├── randomatic@1.1.6 </tspan>
<tspan x="10" y="234">  │   │ │   └── repeat-string@1.6.1 </tspan>
<tspan x="10" y="250">  │   │ ├── preserve@0.2.0 </tspan>
<tspan x="10" y="266">  │   │ └── repeat-element@1.1.2 </tspan>
<tspan x="10" y="282">  │   ├─┬ expand-brackets@0.1.5 </tspan>
<tspan x="10" y="298">  │   │ └── is-posix-bracket@0.1.1 </tspan>
<tspan x="10" y="314">  │   ├── extglob@0.3.2 </tspan>
<tspan x="10" y="330">  │   ├── filename-regex@2.0.0 </tspan>
<tspan x="10" y="346">  │   ├── is-extglob@1.0.0 </tspan>
<tspan x="10" y="362">  │   ├─┬ kind-of@3.1.0 </tspan>
<tspan x="10" y="378">  │   │ └── is-buffer@1.1.5 </tspan>
<tspan x="10" y="394">  │   ├─┬ normalize-path@2.1.1 </tspan>
<tspan x="10" y="410">  │   │ └── remove-trailing-separator@1.0.1 </tspan>
<tspan x="10" y="426">  │   ├─┬ object.omit@2.0.1 </tspan>
<tspan x="10" y="442">  │   │ ├─┬ for-own@0.1.5 </tspan>
<tspan x="10" y="458">  │   │ │ └── for-in@1.0.2 </tspan>
<tspan x="10" y="474">  │   │ └── is-extendable@0.1.1 </tspan>
<tspan x="10" y="490">  │   ├─┬ parse-glob@3.0.4 </tspan>
<tspan x="10" y="506">  │   │ ├── glob-base@0.3.0 </tspan>
<tspan x="10" y="522">  │   │ └── is-dotfile@1.0.2 </tspan>
<tspan x="10" y="538">  │   └─┬ regex-cache@0.4.3 </tspan>
<tspan x="10" y="554">  │     ├── is-equal-shallow@0.1.3 </tspan>
<tspan x="10" y="570">  │     └── is-primitive@2.0.0 </tspan>
<tspan x="10" y="586">  ├── anysort@1.0.1 </tspan>
<tspan x="10" y="602">  ├─┬ check-dependencies@1.0.1 </tspan>
<tspan x="10" y="618">  │ ├─┬ bower-config@1.4.0 </tspan>
<tspan x="10" y="634">  │ │ ├── graceful-fs@4.1.11 </tspan>
<tspan x="10" y="650">  │ │ ├── mout@1.0.0 </tspan>
<tspan x="10" y="666">  │ │ ├─┬ optimist@0.6.1 </tspan>
<tspan x="10" y="682">  │ │ │ ├── minimist@0.0.10 </tspan>
<tspan x="10" y="698">  │ │ │ └── wordwrap@0.0.3 </tspan>
<tspan x="10" y="714">  │ │ ├─┬ osenv@0.1.4 </tspan>
<tspan x="10" y="730">  │ │ │ ├── os-homedir@1.0.2 </tspan>
<tspan x="10" y="746">  │ │ │ └── os-tmpdir@1.0.2 </tspan>
<tspan x="10" y="762">  │ │ └── untildify@2.1.0 </tspan>
<tspan x="10" y="778">  │ ├─┬ chalk@1.1.3 </tspan>
<tspan x="10" y="794">  │ │ ├── ansi-styles@2.2.1 </tspan>
<tspan x="10" y="810">  │ │ ├── escape-string-regexp@1.0.5 </tspan>
<tspan x="10" y="826">  │ │ ├─┬ has-ansi@2.0.0 </tspan>
<tspan x="10" y="842">  │ │ │ └── ansi-regex@2.1.1 </tspan>
<tspan x="10" y="858">  │ │ ├── strip-ansi@3.0.1 </tspan>
<tspan x="10" y="874">  │ │ └── supports-color@2.0.0 </tspan>
<tspan x="10" y="890">  │ ├─┬ findup-sync@0.4.3 </tspan>
<tspan x="10" y="906">  │ │ ├─┬ detect-file@0.1.0 </tspan>
<tspan x="10" y="922">  │ │ │ └── fs-exists-sync@0.1.0 </tspan>
<tspan x="10" y="938">  │ │ └─┬ resolve-dir@0.1.1 </tspan>
<tspan x="10" y="954">  │ │   ├── expand-tilde@1.2.2 </tspan>
<tspan x="10" y="970">  │ │   └─┬ global-modules@0.2.3 </tspan>
<tspan x="10" y="986">  │ │     ├─┬ global-prefix@0.1.5 </tspan>
<tspan x="10" y="1002">  │ │     │ ├─┬ homedir-polyfill@1.0.1 </tspan>
<tspan x="10" y="1018">  │ │     │ │ └── parse-passwd@1.0.0 </tspan>
<tspan x="10" y="1034">  │ │     │ ├── ini@1.3.4 </tspan>
<tspan x="10" y="1050">  │ │     │ └─┬ which@1.2.14 </tspan>
<tspan x="10" y="1066">  │ │     │   └── isexe@2.0.0 </tspan>
<tspan x="10" y="1082">  │ │     └── is-windows@0.2.0 </tspan>
<tspan x="10" y="1098">  │ ├── lodash.camelcase@4.3.0 </tspan>
<tspan x="10" y="1114">  │ ├── minimist@1.2.0 </tspan>
<tspan x="10" y="1130">  │ └── semver@5.3.0 </tspan>
<tspan x="10" y="1146">  ├─┬ chokidar@1.6.1 </tspan>
<tspan x="10" y="1162">  │ ├── async-each@1.0.1 </tspan>
<tspan x="10" y="1178">  │ ├── glob-parent@2.0.0 </tspan>
<tspan x="10" y="1194">  │ ├── inherits@2.0.3 </tspan>
<tspan x="10" y="1210">  │ ├─┬ is-binary-path@1.0.1 </tspan>
<tspan x="10" y="1226">  │ │ └── binary-extensions@1.8.0 </tspan>
<tspan x="10" y="1242">  │ ├── is-glob@2.0.1 </tspan>
<tspan x="10" y="1258">  │ ├── path-is-absolute@1.0.1 </tspan>
<tspan x="10" y="1274">  │ └─┬ readdirp@2.1.0 </tspan>
<tspan x="10" y="1290">  │   ├─┬ minimatch@3.0.3 </tspan>
<tspan x="10" y="1306">  │   │ └─┬ brace-expansion@1.1.6 </tspan>
<tspan x="10" y="1322">  │   │   ├── balanced-match@0.4.2 </tspan>
<tspan x="10" y="1338">  │   │   └── concat-map@0.0.1 </tspan>
<tspan x="10" y="1354">  │   ├─┬ readable-stream@2.2.6 </tspan>
<tspan x="10" y="1370">  │   │ ├── buffer-shims@1.0.0 </tspan>
<tspan x="10" y="1386">  │   │ ├── core-util-is@1.0.2 </tspan>
<tspan x="10" y="1402">  │   │ ├── isarray@1.0.0 </tspan>
<tspan x="10" y="1418">  │   │ ├── process-nextick-args@1.0.7 </tspan>
<tspan x="10" y="1434">  │   │ └── util-deprecate@1.0.2 </tspan>
<tspan x="10" y="1450">  │   └── set-immediate-shim@1.0.1 </tspan>
<tspan x="10" y="1466">  ├── coffee-script@1.11.1 </tspan>
<tspan x="10" y="1482">  ├─┬ commander@2.9.0 </tspan>
<tspan x="10" y="1498">  │ └── graceful-readlink@1.0.1 </tspan>
<tspan x="10" y="1514">  ├── commonjs-require-definition@0.6.2 </tspan>
<tspan x="10" y="1530">  ├─┬ debug@2.2.0 </tspan>
<tspan x="10" y="1546">  │ └── ms@0.7.1 </tspan>
<tspan x="10" y="1562">  ├─┬ deppack@0.7.0 </tspan>
<tspan x="10" y="1578">  │ ├─┬ browser-resolve@1.11.2 </tspan>
<tspan x="10" y="1594">  │ │ └── resolve@1.1.7 </tspan>
<tspan x="10" y="1610">  │ ├─┬ deep-assign@2.0.0 </tspan>
<tspan x="10" y="1626">  │ │ └── is-obj@1.0.1 </tspan>
<tspan x="10" y="1642">  │ ├─┬ detective@4.5.0 </tspan>
<tspan x="10" y="1658">  │ │ ├── acorn@4.0.11 </tspan>
<tspan x="10" y="1674">  │ │ └── defined@1.0.0 </tspan>
<tspan x="10" y="1690">  │ ├─┬ glob@7.1.1 </tspan>
<tspan x="10" y="1706">  │ │ ├── fs.realpath@1.0.0 </tspan>
<tspan x="10" y="1722">  │ │ ├─┬ inflight@1.0.6 </tspan>
<tspan x="10" y="1738">  │ │ │ └── wrappy@1.0.2 </tspan>
<tspan x="10" y="1754">  │ │ └── once@1.4.0 </tspan>
<tspan x="10" y="1770">  │ ├─┬ loggy@0.3.5 </tspan>
<tspan x="10" y="1786">  │ │ ├── ansicolors@0.3.2 </tspan>
<tspan x="10" y="1802">  │ │ └── growl@1.8.1 </tspan>
<tspan x="10" y="1818">  │ ├─┬ node-browser-modules@0.1.0 </tspan>
<tspan x="10" y="1834">  │ │ ├── assert@1.3.0 </tspan>
<tspan x="10" y="1850">  │ │ ├─┬ buffer@4.3.1 </tspan>
<tspan x="10" y="1866">  │ │ │ ├── base64-js@1.2.0 </tspan>
<tspan x="10" y="1882">  │ │ │ └── ieee754@1.1.8 </tspan>
<tspan x="10" y="1898">  │ │ ├─┬ crypto-browserify@3.11.0 </tspan>
<tspan x="10" y="1914">  │ │ │ ├─┬ browserify-cipher@1.0.0 </tspan>
<tspan x="10" y="1930">  │ │ │ │ ├─┬ browserify-aes@1.0.6 </tspan>
<tspan x="10" y="1946">  │ │ │ │ │ └── buffer-xor@1.0.3 </tspan>
<tspan x="10" y="1962">  │ │ │ │ ├─┬ browserify-des@1.0.0 </tspan>
<tspan x="10" y="1978">  │ │ │ │ │ └── des.js@1.0.0 </tspan>
<tspan x="10" y="1994">  │ │ │ │ └── evp_bytestokey@1.0.0 </tspan>
<tspan x="10" y="2010">  │ │ │ ├─┬ browserify-sign@4.0.4 </tspan>
<tspan x="10" y="2026">  │ │ │ │ ├── bn.js@4.11.6 </tspan>
<tspan x="10" y="2042">  │ │ │ │ ├── browserify-rsa@4.0.1 </tspan>
<tspan x="10" y="2058">  │ │ │ │ ├─┬ elliptic@6.4.0 </tspan>
<tspan x="10" y="2074">  │ │ │ │ │ ├── brorand@1.1.0 </tspan>
<tspan x="10" y="2090">  │ │ │ │ │ ├── hash.js@1.0.3 </tspan>
<tspan x="10" y="2106">  │ │ │ │ │ ├── hmac-drbg@1.0.0 </tspan>
<tspan x="10" y="2122">  │ │ │ │ │ ├── minimalistic-assert@1.0.0 </tspan>
<tspan x="10" y="2138">  │ │ │ │ │ └── minimalistic-crypto-utils@1.0.1 </tspan>
<tspan x="10" y="2154">  │ │ │ │ └─┬ parse-asn1@5.1.0 </tspan>
<tspan x="10" y="2170">  │ │ │ │   └── asn1.js@4.9.1 </tspan>
<tspan x="10" y="2186">  │ │ │ ├── create-ecdh@4.0.0 </tspan>
<tspan x="10" y="2202">  │ │ │ ├─┬ create-hash@1.1.2 </tspan>
<tspan x="10" y="2218">  │ │ │ │ ├── cipher-base@1.0.3 </tspan>
<tspan x="10" y="2234">  │ │ │ │ ├── ripemd160@1.0.1 </tspan>
<tspan x="10" y="2250">  │ │ │ │ └── sha.js@2.4.8 </tspan>
<tspan x="10" y="2266">  │ │ │ ├── create-hmac@1.1.4 </tspan>
<tspan x="10" y="2282">  │ │ │ ├─┬ diffie-hellman@5.0.2 </tspan>
<tspan x="10" y="2298">  │ │ │ │ └── miller-rabin@4.0.0 </tspan>
<tspan x="10" y="2314">  │ │ │ ├── pbkdf2@3.0.9 </tspan>
<tspan x="10" y="2330">  │ │ │ ├── public-encrypt@4.0.0 </tspan>
<tspan x="10" y="2346">  │ │ │ └── randombytes@2.0.3 </tspan>
<tspan x="10" y="2362">  │ │ ├── domain-browser@1.1.7 </tspan>
<tspan x="10" y="2378">  │ │ ├── events@1.1.1 </tspan>
<tspan x="10" y="2394">  │ │ ├── https-browserify@0.0.1 </tspan>
<tspan x="10" y="2410">  │ │ ├── os-browserify@0.2.1 </tspan>
<tspan x="10" y="2426">  │ │ ├── path-browserify@0.0.0 </tspan>
<tspan x="10" y="2442">  │ │ ├── process@0.11.9 </tspan>
<tspan x="10" y="2458">  │ │ ├── punycode@1.4.1 </tspan>
<tspan x="10" y="2474">  │ │ ├── querystring-es3@0.2.1 </tspan>
<tspan x="10" y="2490">  │ │ ├── readable-stream@2.0.6 </tspan>
<tspan x="10" y="2506">  │ │ ├── stream-browserify@2.0.1 </tspan>
<tspan x="10" y="2522">  │ │ ├─┬ stream-http@2.1.1 </tspan>
<tspan x="10" y="2538">  │ │ │ ├── builtin-status-codes@2.0.0 </tspan>
<tspan x="10" y="2554">  │ │ │ ├── to-arraybuffer@1.0.1 </tspan>
<tspan x="10" y="2570">  │ │ │ └── xtend@4.0.1 </tspan>
<tspan x="10" y="2586">  │ │ ├── string_decoder@0.10.31 </tspan>
<tspan x="10" y="2602">  │ │ ├── timers-browserify@1.4.2 </tspan>
<tspan x="10" y="2618">  │ │ ├── tty-browserify@0.0.0 </tspan>
<tspan x="10" y="2634">  │ │ ├─┬ url@0.11.0 </tspan>
<tspan x="10" y="2650">  │ │ │ ├── punycode@1.3.2 </tspan>
<tspan x="10" y="2666">  │ │ │ └── querystring@0.2.0 </tspan>
<tspan x="10" y="2682">  │ │ ├─┬ util@0.10.3 </tspan>
<tspan x="10" y="2698">  │ │ │ └── inherits@2.0.1 </tspan>
<tspan x="10" y="2714">  │ │ └─┬ vm-browserify@0.0.4 </tspan>
<tspan x="10" y="2730">  │ │   └── indexof@0.0.1 </tspan>
<tspan x="10" y="2746">  │ └─┬ true-case-path@1.0.2 </tspan>
<tspan x="10" y="2762">  │   └── glob@6.0.4 </tspan>
<tspan x="10" y="2778">  ├─┬ deps-install@0.1.0 </tspan>
<tspan x="10" y="2794">  │ └── loggy@0.3.5 </tspan>
<tspan x="10" y="2810">  ├── fcache@0.3.0 </tspan>
<tspan x="10" y="2826">  ├─┬ init-skeleton@1.0.1 </tspan>
<tspan x="10" y="2842">  │ ├── brunch-skeletons@0.1.5 </tspan>
<tspan x="10" y="2858">  │ ├── hosted-git-info@2.1.5 </tspan>
<tspan x="10" y="2874">  │ ├── ncp@2.0.0 </tspan>
<tspan x="10" y="2890">  │ └── normalize-git-url@3.0.2 </tspan>
<tspan x="10" y="2906">  ├─┬ loggy@1.0.2 </tspan>
<tspan x="10" y="2922">  │ └─┬ native-notifier@0.1.1 </tspan>
<tspan x="10" y="2938">  │   └── tag-shell@0.1.0 </tspan>
<tspan x="10" y="2954">  ├── micro-es7-shim@0.1.0 </tspan>
<tspan x="10" y="2970">  ├── micro-promisify@0.1.1 </tspan>
<tspan x="10" y="2986">  ├─┬ mkdirp@0.5.1 </tspan>
<tspan x="10" y="3002">  │ └── minimist@0.0.8 </tspan>
<tspan x="10" y="3018">  ├─┬ promise.prototype.finally@2.0.1 </tspan>
<tspan x="10" y="3034">  │ ├─┬ define-properties@1.1.2 </tspan>
<tspan x="10" y="3050">  │ │ ├── foreach@2.0.5 </tspan>
<tspan x="10" y="3066">  │ │ └── object-keys@1.0.11 </tspan>
<tspan x="10" y="3082">  │ ├─┬ es-abstract@1.7.0 </tspan>
<tspan x="10" y="3098">  │ │ ├─┬ es-to-primitive@1.1.1 </tspan>
<tspan x="10" y="3114">  │ │ │ ├── is-date-object@1.0.1 </tspan>
<tspan x="10" y="3130">  │ │ │ └── is-symbol@1.0.1 </tspan>
<tspan x="10" y="3146">  │ │ ├── is-callable@1.1.3 </tspan>
<tspan x="10" y="3162">  │ │ └─┬ is-regex@1.0.4 </tspan>
<tspan x="10" y="3178">  │ │   └── has@1.0.1 </tspan>
<tspan x="10" y="3194">  │ └── function-bind@1.1.0 </tspan>
<tspan x="10" y="3210">  ├── read-components@0.7.0 </tspan>
<tspan x="10" y="3226">  ├─┬ serve-brunch@0.2.0 </tspan>
<tspan x="10" y="3242">  │ └─┬ pushserve@1.0.2 </tspan>
<tspan x="10" y="3258">  │   ├── connect-slashes@1.3.1 </tspan>
<tspan x="10" y="3274">  │   ├─┬ express@4.15.2 </tspan>
<tspan x="10" y="3290">  │   │ ├─┬ accepts@1.3.3 </tspan>
<tspan x="10" y="3306">  │   │ │ ├─┬ mime-types@2.1.15 </tspan>
<tspan x="10" y="3322">  │   │ │ │ └── mime-db@1.27.0 </tspan>
<tspan x="10" y="3338">  │   │ │ └── negotiator@0.6.1 </tspan>
<tspan x="10" y="3354">  │   │ ├── array-flatten@1.1.1 </tspan>
<tspan x="10" y="3370">  │   │ ├── content-disposition@0.5.2 </tspan>
<tspan x="10" y="3386">  │   │ ├── content-type@1.0.2 </tspan>
<tspan x="10" y="3402">  │   │ ├── cookie@0.3.1 </tspan>
<tspan x="10" y="3418">  │   │ ├── cookie-signature@1.0.6 </tspan>
<tspan x="10" y="3434">  │   │ ├─┬ debug@2.6.1 </tspan>
<tspan x="10" y="3450">  │   │ │ └── ms@0.7.2 </tspan>
<tspan x="10" y="3466">  │   │ ├── depd@1.1.0 </tspan>
<tspan x="10" y="3482">  │   │ ├── encodeurl@1.0.1 </tspan>
<tspan x="10" y="3498">  │   │ ├── escape-html@1.0.3 </tspan>
<tspan x="10" y="3514">  │   │ ├── etag@1.8.0 </tspan>
<tspan x="10" y="3530">  │   │ ├─┬ finalhandler@1.0.1 </tspan>
<tspan x="10" y="3546">  │   │ │ ├─┬ debug@2.6.3 </tspan>
<tspan x="10" y="3562">  │   │ │ │ └── ms@0.7.2 </tspan>
<tspan x="10" y="3578">  │   │ │ └── unpipe@1.0.0 </tspan>
<tspan x="10" y="3594">  │   │ ├── fresh@0.5.0 </tspan>
<tspan x="10" y="3610">  │   │ ├── merge-descriptors@1.0.1 </tspan>
<tspan x="10" y="3626">  │   │ ├── methods@1.1.2 </tspan>
<tspan x="10" y="3642">  │   │ ├─┬ on-finished@2.3.0 </tspan>
<tspan x="10" y="3658">  │   │ │ └── ee-first@1.1.1 </tspan>
<tspan x="10" y="3674">  │   │ ├── parseurl@1.3.1 </tspan>
<tspan x="10" y="3690">  │   │ ├── path-to-regexp@0.1.7 </tspan>
<tspan x="10" y="3706">  │   │ ├─┬ proxy-addr@1.1.4 </tspan>
<tspan x="10" y="3722">  │   │ │ ├── forwarded@0.1.0 </tspan>
<tspan x="10" y="3738">  │   │ │ └── ipaddr.js@1.3.0 </tspan>
<tspan x="10" y="3754">  │   │ ├── qs@6.4.0 </tspan>
<tspan x="10" y="3770">  │   │ ├── range-parser@1.2.0 </tspan>
<tspan x="10" y="3786">  │   │ ├─┬ send@0.15.1 </tspan>
<tspan x="10" y="3802">  │   │ │ ├── debug@2.6.1 </tspan>
<tspan x="10" y="3818">  │   │ │ ├── destroy@1.0.4 </tspan>
<tspan x="10" y="3834">  │   │ │ ├── http-errors@1.6.1 </tspan>
<tspan x="10" y="3850">  │   │ │ ├── mime@1.3.4 </tspan>
<tspan x="10" y="3866">  │   │ │ └── ms@0.7.2 </tspan>
<tspan x="10" y="3882">  │   │ ├── setprototypeof@1.0.3 </tspan>
<tspan x="10" y="3898">  │   │ ├── statuses@1.3.1 </tspan>
<tspan x="10" y="3914">  │   │ ├─┬ type-is@1.6.15 </tspan>
<tspan x="10" y="3930">  │   │ │ └── media-typer@0.3.0 </tspan>
<tspan x="10" y="3946">  │   │ ├── utils-merge@1.0.0 </tspan>
<tspan x="10" y="3962">  │   │ └── vary@1.1.1 </tspan>
<tspan x="10" y="3978">  │   └── serve-static@1.12.1 </tspan>
<tspan x="10" y="3994">  ├── since-app-start@0.3.2 </tspan>
<tspan x="10" y="4010">  ├─┬ skemata@0.1.2 </tspan>
<tspan x="10" y="4026">  │ └── fast-levenshtein@1.1.4 </tspan>
<tspan x="10" y="4042">  ├── source-map@0.5.6 </tspan>
<tspan x="10" y="4058">  └── universal-path@0.1.0</tspan>
</text>
</svg>
